<svg xmlns="http://www.w3.org/2000/svg" width="1024" height="149"><g fill="#E21F67"><path d="M284 101.26V65.5c.72 11.15.91 24.35 0 35.76zM109 140c-16.38 3.57-29.25 10.2-50 7-17.95-2.77-41.71-9.83-50-19-6.09-6.74-8.07-16.68-9-30V73 60.9C2.54 16.55 34.58 1.69 79.79 0H146c59.7.58 126.87-4.54 136 47 .79 4.49 1.52 11.04 2 18.5v35.76c-.67 8.391-1.93 15.82-4 20.74-6.59 15.63-38.97 24.1-64 26-6.3.48-13.25.61-19 0-9.4-1-17.56-6.41-27-8-14.58-2.46-45.45-3.38-61 0zm89-35c36.45-7.34 27.02-69.38-15-60-37.03 8.27-25.78 68.21 15 60zm-115 0c51.84 10.7 50.47-71.65 0-60-30.81 7.11-29.33 53.94 0 60z"/><path d="M99 0H79.79C85.96-.23 92.38-.22 99 0zM0 60.9V73c-.23-4.26-.23-8.28 0-12.1z"/></g><g fill="#E21E65"><path d="M382.101 145.826h-32.12L337.764 7.89h29.952l.985 81.186c.197 13.99-.394 41.775-.394 41.775s7.882-27.588 13.202-41.775L411.461 7.89h30.74l-60.1 137.936zM504.275 85.134c6.897 3.941 10.05 13.597 12.414 26.996l5.715 33.696h-29.558l-2.562-27.391c-1.379-15.566-5.32-23.646-9.853-27.981l-11.429.789-9.655 54.583H431.76L455.998 7.89h37.834c28.966 0 44.928 9.656 44.928 36.061 0 24.237-14.582 35.272-34.485 41.183zm-15.567-55.371h-8.868l-7.488 42.169c21.873-1.379 38.425-5.912 38.425-25.814.001-11.823-6.304-16.355-22.069-16.355z"/></g><g fill="#888"><path d="M366.336 145.826h-32.12L322 7.89h29.952l.985 81.186c.197 13.99-.394 41.775-.394 41.775s7.882-27.588 13.202-41.775L395.697 7.89h30.74l-60.101 137.936zM488.511 85.134c6.897 3.941 10.05 13.597 12.414 26.996l5.715 33.696h-29.558l-2.562-27.391c-1.379-15.566-5.32-23.646-9.853-27.981l-11.429.789-9.655 54.583h-27.587L440.233 7.89h37.834c28.967 0 44.928 9.656 44.928 36.061 0 24.237-14.582 35.272-34.484 41.183zm-15.567-55.371h-8.868l-7.488 42.169c21.873-1.379 38.425-5.912 38.425-25.814.001-11.823-6.305-16.355-22.069-16.355z"/></g><g fill="#888"><path d="M639.058 41.943s-13.597-8.08-24.237-8.08c-7.883 0-13.991 5.518-17.144 9.853-8.671 12.02-14.582 38.425-14.582 56.357 0 15.173 4.927 18.72 15.764 18.72 12.021 0 27.785-6.306 27.785-6.306l-5.32 30.149s-13.203 5.123-31.923 5.123c-20.493 0-45.716-6.306-45.716-48.278 0-30.346 10.246-64.239 26.996-79.214 11.231-10.05 22.267-14.385 43.154-14.385 18.917 0 29.755 8.867 29.755 8.867l-4.532 27.194zM726.748 133.178c-11.231 11.232-28.77 14.582-44.336 14.582-19.705 0-45.125-5.912-45.125-46.898 0-40.593 13.005-67.392 25.616-80.2 8.079-8.079 20.494-14.779 42.563-14.779 21.479 0 47.096 6.896 47.096 47.489 0 30.937-7.291 61.48-25.814 79.806zm-24.237-102.27c-7.29 0-11.231 5.714-13.99 11.232-5.911 11.429-12.809 45.52-12.809 62.466 0 13.99 3.941 18.129 11.626 18.129 5.518 0 10.444-3.744 13.597-9.656 6.7-12.414 13.794-52.613 13.794-67.786 0-12.021-4.927-14.385-12.218-14.385zM859.169 145.789h-34.09l-11.823-34.878c-4.139-12.218-11.429-41.775-11.429-41.775s-1.38 29.952-4.139 45.322l-5.518 31.331h-37.439L778.969 7.853h36.061l9.655 31.922C830.202 58.298 835.72 84.9 835.72 84.9s1.773-27.982 5.32-48.672l4.927-28.375h37.439l-24.237 137.936zM922.229 145.789h-39.41L907.056 7.853h39.41l-24.237 137.936zm52.021-71.136l18.917 71.136-42.76 1.971-15.173-74.88 36.257-65.027h43.943l-41.184 66.8z"/></g><g><g fill="#E21E65"><path d="M646.94 41.943s-13.597-8.08-24.237-8.08c-7.883 0-13.991 5.518-17.144 9.853-8.671 12.02-14.582 38.425-14.582 56.357 0 15.173 4.927 18.72 15.764 18.72 12.021 0 27.785-6.306 27.785-6.306l-5.32 30.149s-13.203 5.123-31.923 5.123c-20.493 0-45.716-6.306-45.716-48.278 0-30.346 10.246-64.239 26.996-79.214 11.231-10.05 22.267-14.385 43.154-14.385 18.917 0 29.755 8.867 29.755 8.867l-4.532 27.194zM734.631 133.178c-11.231 11.232-28.77 14.582-44.336 14.582-19.705 0-45.125-5.912-45.125-46.898 0-40.593 13.005-67.392 25.616-80.2 8.079-8.079 20.494-14.779 42.563-14.779 21.479 0 47.096 6.896 47.096 47.489 0 30.937-7.291 61.48-25.814 79.806zm-24.237-102.27c-7.29 0-11.231 5.714-13.99 11.232-5.911 11.429-12.809 45.52-12.809 62.466 0 13.99 3.941 18.129 11.626 18.129 5.518 0 10.444-3.744 13.597-9.656 6.7-12.414 13.794-52.613 13.794-67.786-.001-12.021-4.927-14.385-12.218-14.385zM867.052 145.789h-34.09l-11.823-34.878C817 98.693 809.71 69.136 809.71 69.136s-1.38 29.952-4.139 45.322l-5.518 31.331h-37.439L786.852 7.853h36.061l9.655 31.922c5.518 18.523 11.035 45.125 11.035 45.125s1.773-27.982 5.32-48.672l4.927-28.375h37.439l-24.237 137.936zM930.111 145.789h-39.41L914.938 7.853h39.41l-24.237 137.936zm52.022-71.136l18.917 71.136-42.76 1.971-15.173-74.88 36.257-65.027h43.943l-41.184 66.8z"/></g></g></svg>